<svg width="24" height="24" viewBox="0 0 128 128" fill="none" xmlns="http://www.w3.org/2000/svg">
    <circle cx="54" cy="54" r="50" fill="none"/>
    <path fill="#71c2ff" d="m125.12 107.5-28.87-50C93.91 53.43 89.7 51 85 51s-8.91 2.43-11.26 6.5l-28.87 50c-2.35 4.07-2.35 8.93 0 13s6.56 6.5 11.26 6.5h57.73c4.7 0 8.91-2.43 11.26-6.5s2.36-8.93 0-13z"/>
    <path d="M85 115c-1.66 0-3-1.34-3-3v-3c0-1.66 1.34-3 3-3s3 1.34 3 3v3c0 1.66-1.34 3-3 3zM85 97c-1.66 0-3-1.34-3-3V72c0-1.66 1.34-3 3-3s3 1.34 3 3v22c0 1.66-1.34 3-3 3z" fill="currentColor"/>
    <path d="M54 72c-1.66 0-3-1.34-3-3V39c0-1.66 1.34-3 3-3s3 1.34 3 3v30c0 1.66-1.34 3-3 3z" fill="#444b54"/>
    <path d="M36.1 103.7c-.36 0-.72-.06-1.07-.2C14.67 95.69 1 75.8 1 54 1 24.78 24.78 1 54 1c27.3 0 49.97 20.46 52.73 47.58a2.999 2.999 0 0 1-2.68 3.29 3.01 3.01 0 0 1-3.29-2.68C98.31 25.14 78.21 7 54 7 28.08 7 7 28.08 7 54c0 19.33 12.13 36.98 30.17 43.9 1.55.59 2.32 2.33 1.73 3.88a3.007 3.007 0 0 1-2.8 1.92z" fill="#444b54"/>
</svg>
