<?xml version="1.0" encoding="UTF-8"?>
<svg width="271px" height="48px" viewBox="0 0 271 48" version="1.1" xmlns="http://www.w3.org/2000/svg" xmlns:xlink="http://www.w3.org/1999/xlink">
    <title>Logos/Outlined/Mean DeFi White on Black</title>
    <defs>
        <linearGradient x1="50%" y1="0%" x2="50%" y2="100%" id="linearGradient-1">
            <stop stop-color="#FF0017" offset="0%"></stop>
            <stop stop-color="#B7001C" offset="100%"></stop>
        </linearGradient>
    </defs>
    <g id="Logos/Outlined/Mean-DeFi-White-on-Black" stroke="none" stroke-width="1" fill="none" fill-rule="evenodd">
        <g id="Group">
            <g fill="url(#linearGradient-1)" id="Fill-1-Copy">
                <path d="M48.3238374,0 L24.8400221,6.18221989 L1.35620685,0 L0,10.7702059 L9.72181567,35.3912965 L24.8417721,48 L39.9577911,35.3912965 L49.6774194,10.7702059 L48.3238374,0 Z M43.9817881,5.8571144 L44.6240176,10.9623137 L36.0834144,32.5961716 L30.6393376,37.136348 L38.328593,12.8768721 L28.5004682,15.3907894 L26.6997755,37.0763686 L24.8391472,41.9425198 L22.9789564,37.0763686 L21.1773887,15.3907894 L11.3497014,12.8768721 L19.0389567,37.136348 L13.5948799,32.5961716 L5.05471417,10.9623137 L5.69694373,5.8571144 L24.8391472,10.8988573 L43.9817881,5.8571144 Z"></path>
            </g>
            <path d="M62.4866935,38.14 L63.8371935,20.3615 L70.1641935,37.7885 L74.4561935,37.7885 L80.7831935,20.3615 L82.1521935,38.14 L89.2746935,38.14 L86.5736935,7.615 L78.9886935,7.615 L72.3101935,24.968 L65.6316935,7.615 L58.0466935,7.615 L55.3456935,38.14 L62.4866935,38.14 Z M119.475645,38.14 L119.475645,31.887 L109.060145,31.887 L109.060145,25.967 L119.031645,25.967 L119.031645,19.714 L109.060145,19.714 L109.060145,13.868 L119.475645,13.868 L119.475645,7.615 L101.937645,7.615 L101.937645,38.14 L119.475645,38.14 Z M136.486097,38.14 L138.687597,32.183 L150.268597,32.183 L152.451597,38.14 L160.129097,38.14 L147.789597,7.615 L141.166597,7.615 L128.808597,38.14 L136.486097,38.14 Z M147.826597,25.93 L141.111097,25.93 L144.478097,17.2905 L147.826597,25.93 Z M177.102548,38.14 L177.102548,19.4735 L189.090548,38.14 L196.213048,38.14 L196.213048,7.615 L189.090548,7.615 L189.090548,26.2815 L177.102548,7.615 L169.980048,7.615 L169.980048,38.14 L177.102548,38.14 Z" id="MEAN" fill="#FFFFFF" fill-rule="nonzero"></path>
        </g>
        <g id="Group" transform="translate(206.000000, 9.000000)">
            <rect id="Rectangle" fill="#B7001B" x="0" y="0" width="55" height="26" rx="13"></rect>
            <path d="M15.488,19 C16.3946667,19 17.22,18.8546667 17.964,18.564 C18.708,18.2733333 19.344,17.868 19.872,17.348 C20.4,16.828 20.8093333,16.212 21.1,15.5 C21.3906667,14.788 21.536,14.0106667 21.536,13.168 C21.536,12.3306667 21.3906667,11.556 21.1,10.844 C20.8093333,10.132 20.4,9.51733333 19.872,9 C19.344,8.48266667 18.708,8.07733333 17.964,7.784 C17.22,7.49066667 16.3946667,7.344 15.488,7.344 L15.488,7.344 L10.96,7.344 L10.96,19 L15.488,19 Z M15.488,16.92 L13.68,16.92 L13.68,9.424 L15.488,9.424 C16.0053333,9.424 16.4666667,9.51066667 16.872,9.684 C17.2773333,9.85733333 17.62,10.1053333 17.9,10.428 C18.18,10.7506667 18.3946667,11.144 18.544,11.608 C18.6933333,12.072 18.768,12.592 18.768,13.168 C18.768,13.7493333 18.6933333,14.272 18.544,14.736 C18.3946667,15.2 18.18,15.5933333 17.9,15.916 C17.62,16.2386667 17.2773333,16.4866667 16.872,16.66 C16.4666667,16.8333333 16.0053333,16.92 15.488,16.92 L15.488,16.92 Z M26.496,19.128 C26.7786667,19.128 27.076,19.108 27.388,19.068 C27.7,19.028 28.012,18.956 28.324,18.852 C28.636,18.748 28.94,18.604 29.236,18.42 C29.532,18.236 29.808,17.9973333 30.064,17.704 L30.064,17.704 L29.344,16.816 C29.2426667,16.672 29.0933333,16.6 28.896,16.6 C28.7466667,16.6 28.604,16.6346667 28.468,16.704 C28.332,16.7733333 28.1826667,16.8506667 28.02,16.936 C27.8573333,17.0213333 27.672,17.0986667 27.464,17.168 C27.256,17.2373333 27.008,17.272 26.72,17.272 C26.1813333,17.272 25.7413333,17.116 25.4,16.804 C25.0586667,16.492 24.848,15.9893333 24.768,15.296 L24.768,15.296 L29.552,15.296 C29.664,15.296 29.756,15.2826667 29.828,15.256 C29.9,15.2293333 29.9573333,15.1813333 30,15.112 C30.0426667,15.0426667 30.072,14.9493333 30.088,14.832 C30.104,14.7146667 30.112,14.5626667 30.112,14.376 C30.112,13.7786667 30.02,13.244 29.836,12.772 C29.652,12.3 29.396,11.9013333 29.068,11.576 C28.74,11.2506667 28.348,11.0026667 27.892,10.832 C27.436,10.6613333 26.9333333,10.576 26.384,10.576 C25.7493333,10.576 25.18,10.6853333 24.676,10.904 C24.172,11.1226667 23.7426667,11.4186667 23.388,11.792 C23.0333333,12.1653333 22.7613333,12.6 22.572,13.096 C22.3826667,13.592 22.288,14.1173333 22.288,14.672 C22.288,15.408 22.3986667,16.0533333 22.62,16.608 C22.8413333,17.1626667 23.1426667,17.6266667 23.524,18 C23.9053333,18.3733333 24.3506667,18.6546667 24.86,18.844 C25.3693333,19.0333333 25.9146667,19.128 26.496,19.128 Z M27.888,13.856 L24.792,13.856 C24.8773333,13.3493333 25.0533333,12.9613333 25.32,12.692 C25.5866667,12.4226667 25.9573333,12.288 26.432,12.288 C26.6986667,12.288 26.9253333,12.3333333 27.112,12.424 C27.2986667,12.5146667 27.4493333,12.6333333 27.564,12.78 C27.6786667,12.9266667 27.7613333,13.0933333 27.812,13.28 C27.8626667,13.4666667 27.888,13.6586667 27.888,13.856 L27.888,13.856 Z M34.256,19 L34.256,14.464 L38.24,14.464 L38.24,12.376 L34.256,12.376 L34.256,9.424 L39.04,9.424 L39.04,7.344 L31.536,7.344 L31.536,19 L34.256,19 Z M41.776,9.872 C41.984,9.872 42.18,9.83333333 42.364,9.756 C42.548,9.67866667 42.7093333,9.57466667 42.848,9.444 C42.9866667,9.31333333 43.096,9.16133333 43.176,8.988 C43.256,8.81466667 43.296,8.62933333 43.296,8.432 C43.296,8.22933333 43.256,8.04 43.176,7.864 C43.096,7.688 42.9866667,7.53333333 42.848,7.4 C42.7093333,7.26666667 42.548,7.16266667 42.364,7.088 C42.18,7.01333333 41.984,6.976 41.776,6.976 C41.5733333,6.976 41.384,7.01333333 41.208,7.088 C41.032,7.16266667 40.876,7.26666667 40.74,7.4 C40.604,7.53333333 40.4973333,7.688 40.42,7.864 C40.3426667,8.04 40.304,8.22933333 40.304,8.432 C40.304,8.62933333 40.3426667,8.81466667 40.42,8.988 C40.4973333,9.16133333 40.604,9.31333333 40.74,9.444 C40.876,9.57466667 41.032,9.67866667 41.208,9.756 C41.384,9.83333333 41.5733333,9.872 41.776,9.872 Z M43.008,19 L43.008,10.704 L40.528,10.704 L40.528,19 L43.008,19 Z" id="DeFi" fill="#FFFFFF" fill-rule="nonzero"></path>
        </g>
    </g>
</svg>