<?xml version="1.0" encoding="UTF-8"?>
<svg width="240px" height="48px" viewBox="0 0 240 48" version="1.1" xmlns="http://www.w3.org/2000/svg" xmlns:xlink="http://www.w3.org/1999/xlink">
    <title>Logos/Source/MeanFi Black on White Copy</title>
    <defs>
        <linearGradient x1="50%" y1="0%" x2="50%" y2="100%" id="linearGradient-1">
            <stop stop-color="#FF0017" offset="0%"></stop>
            <stop stop-color="#B7001C" offset="100%"></stop>
        </linearGradient>
    </defs>
    <g id="Logos/Source/MeanFi-Black-on-White-Copy" stroke="none" stroke-width="1" fill="none" fill-rule="evenodd">
        <g id="Group">
            <g fill="url(#linearGradient-1)" id="Fill-1-Copy">
                <path d="M48.3238374,0 L24.8400221,6.18221989 L1.35620685,0 L0,10.7702059 L9.72181567,35.3912965 L24.8417721,48 L39.9577911,35.3912965 L49.6774194,10.7702059 L48.3238374,0 Z M43.9817881,5.8571144 L44.6240176,10.9623137 L36.0834144,32.5961716 L30.6393376,37.136348 L38.328593,12.8768721 L28.5004682,15.3907894 L26.6997755,37.0763686 L24.8391472,41.9425198 L22.9789564,37.0763686 L21.1773887,15.3907894 L11.3497014,12.8768721 L19.0389567,37.136348 L13.5948799,32.5961716 L5.05471417,10.9623137 L5.69694373,5.8571144 L24.8391472,10.8988573 L43.9817881,5.8571144 Z"></path>
            </g>
            <path d="M62.4866935,38.14 L63.8371935,20.3615 L70.1641935,37.7885 L74.4561935,37.7885 L80.7831935,20.3615 L82.1521935,38.14 L89.2746935,38.14 L86.5736935,7.615 L78.9886935,7.615 L72.3101935,24.968 L65.6316935,7.615 L58.0466935,7.615 L55.3456935,38.14 L62.4866935,38.14 Z M119.475645,38.14 L119.475645,31.887 L109.060145,31.887 L109.060145,25.967 L119.031645,25.967 L119.031645,19.714 L109.060145,19.714 L109.060145,13.868 L119.475645,13.868 L119.475645,7.615 L101.937645,7.615 L101.937645,38.14 L119.475645,38.14 Z M136.486097,38.14 L138.687597,32.183 L150.268597,32.183 L152.451597,38.14 L160.129097,38.14 L147.789597,7.615 L141.166597,7.615 L128.808597,38.14 L136.486097,38.14 Z M147.826597,25.93 L141.111097,25.93 L144.478097,17.2905 L147.826597,25.93 Z M177.102548,38.14 L177.102548,19.4735 L189.090548,38.14 L196.213048,38.14 L196.213048,7.615 L189.090548,7.615 L189.090548,26.2815 L177.102548,7.615 L169.980048,7.615 L169.980048,38.14 L177.102548,38.14 Z" id="MEAN" fill="#FFFFFF" fill-rule="nonzero"></path>
        </g>
        <g id="Group" transform="translate(206.000000, 11.000000)">
            <rect id="Rectangle" fill="#B7001B" x="0" y="0" width="27" height="27" rx="13.5"></rect>
            <path d="M11.4160009,21 L11.4160009,15.081999 L13.5500012,15.081999 L13.5500012,11.9689985 L11.4160009,11.9689985 L11.4160009,9.96699819 C11.4160009,9.06499804 11.845001,8.811998 12.241001,8.811998 C12.6590011,8.811998 12.9230011,9.10899805 13.0110011,9.22999807 L14.4520014,6.44699761 C14.2100013,6.21599758 13.3740012,5.59999748 11.6910009,5.59999748 C9.63400059,5.59999748 7.61000026,7.04099771 7.61000026,9.63699814 L7.61000026,11.9689985 L6.23500003,11.9689985 L6.23500003,15.081999 L7.61000026,15.081999 L7.61000026,21 L11.4160009,21 Z M16.7103432,10.5116949 C16.7096713,10.5116474 16.7089994,10.5115996 16.7083277,10.5115515 L16.8610018,10.5169983 C16.7841135,10.5169983 16.7082776,10.5128848 16.6336895,10.5048722 C16.6003228,10.5012953 16.566748,10.4968665 16.533448,10.4916555 C16.5186816,10.4893425 16.5042855,10.4869321 16.4899427,10.4843761 C16.4507615,10.4773995 16.4116885,10.4692675 16.3730498,10.4600666 C16.3605683,10.4570939 16.3482184,10.4540319 16.3359143,10.450861 C16.2967778,10.4407747 16.2581267,10.4295944 16.2199705,10.4173501 C16.2055063,10.4127077 16.1912141,10.4079473 16.1769938,10.4030381 C16.14186,10.3909149 16.1068772,10.3777662 16.0723677,10.3637236 C16.0587047,10.3581634 16.0451629,10.3524834 16.0316964,10.3466662 C15.9973832,10.3318425 15.9636007,10.316148 15.9303336,10.2995943 C15.9162806,10.2926007 15.9024049,10.2854986 15.888622,10.2782474 C15.7994198,10.231326 15.7139818,10.1780626 15.6330009,10.1191379 C15.6158752,10.1066749 15.599063,10.0940471 15.5824527,10.0811752 C15.5596946,10.0635427 15.5371643,10.0453247 15.5150314,10.0266569 C15.4997888,10.0138009 15.4847184,10.0007171 15.4698413,9.9874243 C15.4454485,9.96562918 15.4215737,9.94327073 15.3982381,9.92037186 C15.3845042,9.90688737 15.3713747,9.89364828 15.3584243,9.88023741 C15.3367746,9.85782154 15.3155126,9.8347982 15.2947734,9.81130843 C15.2828001,9.79774802 15.270951,9.78397256 15.2592811,9.77004396 C14.9537468,9.40535888 14.7710014,8.93575827 14.7710014,8.42699794 C14.7710014,7.28299775 15.7060016,6.31499759 16.8610018,6.31499759 C18.005002,6.31499759 18.9730021,7.27199775 18.9730021,8.42699794 C18.9730021,9.57099813 18.016002,10.5169983 16.8610018,10.5169983 L16.8610018,10.5169983 Z M18.7200021,21 L18.7200021,11.9689985 L14.9140015,11.9689985 L14.9140015,21 L18.7200021,21 Z" id="fi" fill="#FFFFFF" fill-rule="nonzero"></path>
        </g>
    </g>
</svg>