<?xml version="1.0" encoding="UTF-8"?>
<svg width="246px" height="48px" viewBox="0 0 246 48" version="1.1" xmlns="http://www.w3.org/2000/svg" xmlns:xlink="http://www.w3.org/1999/xlink">
    <title>Logos/Outlined/MeanFi White On Black</title>
    <defs>
        <linearGradient x1="50%" y1="0%" x2="50%" y2="100%" id="linearGradient-1">
            <stop stop-color="#FF0017" offset="0%"></stop>
            <stop stop-color="#B7001C" offset="100%"></stop>
        </linearGradient>
    </defs>
    <g id="Logos/Outlined/MeanFi-White-On-Black" stroke="none" stroke-width="1" fill="none" fill-rule="evenodd">
        <g id="Mean-Logo/Outlined/Black-on-White">
            <g id="Mean-Logo/Mark" fill="url(#linearGradient-1)">
                <path d="M50.4875913,0 L25.9522619,6.18221989 L1.41693253,0 L0,10.7702059 L10.1571208,35.3912965 L25.9540902,48 L41.7469459,35.3912965 L51.9017814,10.7702059 L50.4875913,0 Z M45.9511219,5.8571144 L46.622108,10.9623137 L37.6990897,32.5961716 L32.0112483,37.136348 L40.0447986,12.8768721 L29.7766085,15.3907894 L27.8952878,37.0763686 L25.9513478,41.9425198 L24.0078648,37.0763686 L22.12563,15.3907894 L11.857897,12.8768721 L19.8914473,37.136348 L14.2036059,32.5961716 L5.28104465,10.9623137 L5.95203077,5.8571144 L25.9513478,10.8988573 L45.9511219,5.8571144 Z" id="Fill-1-Copy"></path>
            </g>
            <path d="M70.1473134,38.525 L71.5582836,20.7465 L78.1685821,38.1735 L82.6527612,38.1735 L89.2630597,20.7465 L90.6933582,38.525 L98.1347761,38.525 L95.3128358,8 L87.388209,8 L80.4106716,25.353 L73.4331343,8 L65.5085075,8 L62.6865672,38.525 L70.1473134,38.525 Z M129.688009,38.525 L129.688009,32.272 L118.806143,32.272 L118.806143,26.352 L129.224129,26.352 L129.224129,20.099 L118.806143,20.099 L118.806143,14.253 L129.688009,14.253 L129.688009,8 L111.364726,8 L111.364726,38.525 L129.688009,38.525 Z M147.460123,38.525 L149.760197,32.568 L161.85975,32.568 L164.140496,38.525 L172.161765,38.525 L159.26975,8 L152.350197,8 L139.438854,38.525 L147.460123,38.525 Z M159.308406,26.315 L152.292212,26.315 L155.809974,17.6755 L159.308406,26.315 Z M189.895221,38.525 L189.895221,19.8585 L202.419998,38.525 L209.861416,38.525 L209.861416,8 L202.419998,8 L202.419998,26.6665 L189.895221,8 L182.453804,8 L182.453804,38.525 L189.895221,38.525 Z" id="MEAN" fill="#FFFFFF" fill-rule="nonzero"></path>
        </g>
        <g id="Group" transform="translate(209.000000, 8.000000)">
            <rect id="Rectangle" fill="#B7001B" x="0" y="0" width="32" height="32" rx="16"></rect>
            <path d="M14.3038822,5 C16.5568942,5 17.6760375,5.84 18,6.155 L18,6.155 L16.0709505,9.95 C15.9531459,9.785 15.5997323,9.38 15.0401606,9.38 C14.5100402,9.38 13.935743,9.725 13.935743,10.955 L13.935743,10.955 L13.935743,13.685 L16.7925033,13.685 L16.7925033,17.93 L13.935743,17.93 L13.935743,26 L8.84069612,26 L8.84069612,17.93 L7,17.93 L7,13.685 L8.84069612,13.685 L8.84069612,10.505 C8.84069612,6.965 11.5502008,5 14.3038822,5 Z M21.486911,7 C22.8481675,7 24,8.13874346 24,9.51308901 C24,10.8743455 22.8612565,12 21.486911,12 C20.0994764,12 19,10.8743455 19,9.51308901 C19,8.15183246 20.1125654,7 21.486911,7 Z M24,26 L24,14 L19,14 L19,26 L24,26 Z" id="fi" fill="#FFFFFF" fill-rule="nonzero"></path>
        </g>
    </g>
</svg>