<?xml version="1.0" encoding="UTF-8"?>
<svg width="246px" height="48px" viewBox="0 0 246 48" version="1.1" xmlns="http://www.w3.org/2000/svg" xmlns:xlink="http://www.w3.org/1999/xlink">
    <title>Logos/Outlined/MeanFi White On Black</title>
    <defs>
        <linearGradient x1="50%" y1="0%" x2="50%" y2="100%" id="linearGradient-1">
            <stop stop-color="#FF0017" offset="0%"></stop>
            <stop stop-color="#B7001C" offset="100%"></stop>
        </linearGradient>
    </defs>
    <g id="Logos/Outlined/MeanFi-White-On-Black" stroke="none" stroke-width="1" fill="none" fill-rule="evenodd">
        <g id="Group">
            <g fill="url(#linearGradient-1)" id="Fill-1-Copy">
                <path d="M48.3238374,0 L24.8400221,6.18221989 L1.35620685,0 L0,10.7702059 L9.72181567,35.3912965 L24.8417721,48 L39.9577911,35.3912965 L49.6774194,10.7702059 L48.3238374,0 Z M43.9817881,5.8571144 L44.6240176,10.9623137 L36.0834144,32.5961716 L30.6393376,37.136348 L38.328593,12.8768721 L28.5004682,15.3907894 L26.6997755,37.0763686 L24.8391472,41.9425198 L22.9789564,37.0763686 L21.1773887,15.3907894 L11.3497014,12.8768721 L19.0389567,37.136348 L13.5948799,32.5961716 L5.05471417,10.9623137 L5.69694373,5.8571144 L24.8391472,10.8988573 L43.9817881,5.8571144 Z"></path>
            </g>
            <path d="M67.141,38.525 L68.4915,20.7465 L74.8185,38.1735 L79.1105,38.1735 L85.4375,20.7465 L86.8065,38.525 L93.929,38.525 L91.228,8 L83.643,8 L76.9645,25.353 L70.286,8 L62.701,8 L60,38.525 L67.141,38.525 Z M124.129952,38.525 L124.129952,32.272 L113.714452,32.272 L113.714452,26.352 L123.685952,26.352 L123.685952,20.099 L113.714452,20.099 L113.714452,14.253 L124.129952,14.253 L124.129952,8 L106.591952,8 L106.591952,38.525 L124.129952,38.525 Z M141.140403,38.525 L143.341903,32.568 L154.922903,32.568 L157.105903,38.525 L164.783403,38.525 L152.443903,8 L145.820903,8 L133.462903,38.525 L141.140403,38.525 Z M152.480903,26.315 L145.765403,26.315 L149.132403,17.6755 L152.480903,26.315 Z M181.756855,38.525 L181.756855,19.8585 L193.744855,38.525 L200.867355,38.525 L200.867355,8 L193.744855,8 L193.744855,26.6665 L181.756855,8 L174.634355,8 L174.634355,38.525 L181.756855,38.525 Z" id="MEAN" fill="#FFFFFF" fill-rule="nonzero"></path>
        </g>
        <g id="Group" transform="translate(209.000000, 8.000000)">
            <rect id="Rectangle" fill="#B7001B" x="0" y="0" width="32" height="32" rx="16"></rect>
            <path d="M14.3038822,5 C16.5568942,5 17.6760375,5.84 18,6.155 L18,6.155 L16.0709505,9.95 C15.9531459,9.785 15.5997323,9.38 15.0401606,9.38 C14.5100402,9.38 13.935743,9.725 13.935743,10.955 L13.935743,10.955 L13.935743,13.685 L16.7925033,13.685 L16.7925033,17.93 L13.935743,17.93 L13.935743,26 L8.84069612,26 L8.84069612,17.93 L7,17.93 L7,13.685 L8.84069612,13.685 L8.84069612,10.505 C8.84069612,6.965 11.5502008,5 14.3038822,5 Z M21.486911,7 C22.8481675,7 24,8.13874346 24,9.51308901 C24,10.8743455 22.8612565,12 21.486911,12 C20.0994764,12 19,10.8743455 19,9.51308901 C19,8.15183246 20.1125654,7 21.486911,7 Z M24,26 L24,14 L19,14 L19,26 L24,26 Z" id="fi" fill="#FFFFFF" fill-rule="nonzero"></path>
        </g>
    </g>
</svg>