<?xml version="1.0" encoding="utf-8"?>
<svg version="1.1" xmlns="http://www.w3.org/2000/svg" xmlns:xlink="http://www.w3.org/1999/xlink" x="0px" y="0px" width="1203" height="255"
	 viewBox="0 0 1203 255" xml:space="preserve">
	<path fill="#DF2F2F" d="M1016.9,252h-58.6V126.5C958.3,47.4,1016.9,3,1079.9,3s122.6,44.4,122.6,123.6V252h-58.6V126.5
		c0-43-26.9-67.4-63.5-67.4c-36.6,0-63.5,24.4-63.5,67.4V252z"/>
	<path fill="#DF2F2F" d="M867.9,23V5.4h58.6v244.2h-58.6V232c-19,14.2-43,22.5-70.8,22.5c-72.8,0-129.4-56.6-129.4-127
		c0-70.3,56.7-127,129.4-127C824.9,0.5,848.9,8.8,867.9,23z M797.1,198.3c40,0,70.8-30.8,70.8-70.8c0-40-30.8-70.8-70.8-70.8
		c-40,0-70.8,30.8-70.8,70.8C726.3,167.5,757.1,198.3,797.1,198.3z"/>
	<path fill="#DF2F2F" d="M652.3,127.5v22H453c8.8,28.8,36.1,48.8,72.3,48.8c25.9,0,43.5-8.3,56.2-22l59.6,16.1
		c-22,37.1-62.5,62-115.7,62c-77.7,0-131.9-53.7-131.9-127c0-70.3,56.7-127,129.4-127C595.6,0.5,652.3,57.2,652.3,127.5z M522.9,56.7
		c-33.2,0-59.6,19-69.3,46.4h136.3C580,75.7,554.1,56.7,522.9,56.7z"/>
	<path fill="#DF2F2F" d="M263.4,3c56.2,0,107.9,43,107.9,108.4V252h-58.6V111.4c0-31.3-21-52.3-48.8-52.3c-27.8,0-48.8,21-48.8,52.3V252
		h-58.6V111.4c0-31.3-21-52.3-48.8-52.3c-27.8,0-48.8,21-48.8,52.3V252H0.2V111.4C0.2,45.9,51,3,107.1,3c31.3,0,61,13.2,81.1,36.1
		C205.8,16.2,232.1,3,263.4,3z"/>
</svg>
