<?xml version="1.0" encoding="UTF-8" standalone="no"?>
<!DOCTYPE svg PUBLIC "-//W3C//DTD SVG 1.1//EN" "http://www.w3.org/Graphics/SVG/1.1/DTD/svg11.dtd">
<svg width="100%" height="100%" viewBox="0 0 245 238" version="1.1" xmlns="http://www.w3.org/2000/svg" xmlns:xlink="http://www.w3.org/1999/xlink" xml:space="preserve" xmlns:serif="http://www.serif.com/" style="fill-rule:evenodd;clip-rule:evenodd;stroke-linejoin:round;stroke-miterlimit:2;">
    <g transform="matrix(1,0,0,1,0,-75)">
        <path id="Fill-1-Copy" d="M238.324,75L122.506,105.654L6.689,75L0,128.402L47.946,250.482L122.515,313L197.065,250.482L245,128.402L238.324,75ZM216.91,104.042L220.078,129.355L177.957,236.623L151.108,259.134L189.03,138.848L140.559,151.313L131.678,258.837L122.502,282.965L113.328,258.837L104.443,151.313L55.975,138.848L93.897,259.134L67.047,236.623L24.929,129.355L28.096,104.042L122.502,129.04L216.91,104.042Z" style="fill:url(#_Linear1);"/>
    </g>
    <defs>
        <linearGradient id="_Linear1" x1="0" y1="0" x2="1" y2="0" gradientUnits="userSpaceOnUse" gradientTransform="matrix(1.45733e-14,238,-238,1.45733e-14,122.5,75)"><stop offset="0" style="stop-color:rgb(255,0,23);stop-opacity:1"/><stop offset="1" style="stop-color:rgb(183,0,28);stop-opacity:1"/></linearGradient>
    </defs>
</svg>
