<?xml version="1.0" encoding="UTF-8" standalone="no"?>
<!DOCTYPE svg PUBLIC "-//W3C//DTD SVG 1.1//EN" "http://www.w3.org/Graphics/SVG/1.1/DTD/svg11.dtd">
<svg width="100%" height="100%" viewBox="0 0 575 346" version="1.1" xmlns="http://www.w3.org/2000/svg" xmlns:xlink="http://www.w3.org/1999/xlink" xml:space="preserve" xmlns:serif="http://www.serif.com/" style="fill-rule:evenodd;clip-rule:evenodd;stroke-linejoin:round;stroke-miterlimit:2;">
    <g transform="matrix(1,0,0,1,-212.86,-327.07)">
        <path d="M621.92,327.07C573.64,327.07 530.21,347.78 500,380.79C469.79,347.78 426.35,327.07 378.08,327.07C286.83,327.07 212.86,401.04 212.86,492.29L212.86,672.94L299.48,672.94L299.48,492.13C299.48,448.72 334.67,413.53 378.08,413.53C421.49,413.53 456.68,448.72 456.68,492.13L456.68,672.94L543.32,672.94L543.32,492.13C543.32,448.72 578.51,413.53 621.92,413.53C665.33,413.53 700.52,448.72 700.52,492.13L700.52,672.94L787.14,672.94L787.14,492.29C787.14,401.04 713.17,327.07 621.92,327.07Z" style="fill:rgb(223,47,47);fill-rule:nonzero;"/>
    </g>
</svg>
