<?xml version="1.0" encoding="UTF-8"?>
<svg width="302px" height="48px" viewBox="0 0 302 48" version="1.1" xmlns="http://www.w3.org/2000/svg" xmlns:xlink="http://www.w3.org/1999/xlink">
    <title>Logos/Source/Mean Finance - Black on White</title>
    <defs>
        <linearGradient x1="50%" y1="0%" x2="50%" y2="100%" id="linearGradient-1">
            <stop stop-color="#FF0017" offset="0%"></stop>
            <stop stop-color="#B7001C" offset="100%"></stop>
        </linearGradient>
    </defs>
    <g id="Logos/Source/Mean-Finance---Black-on-White" stroke="none" stroke-width="1" fill="none" fill-rule="evenodd">
        <g id="Group">
            <g fill="url(#linearGradient-1)" id="Fill-1-Copy">
                <path d="M48.3238374,0 L24.8400221,6.18221989 L1.35620685,0 L0,10.7702059 L9.72181567,35.3912965 L24.8417721,48 L39.9577911,35.3912965 L49.6774194,10.7702059 L48.3238374,0 Z M43.9817881,5.8571144 L44.6240176,10.9623137 L36.0834144,32.5961716 L30.6393376,37.136348 L38.328593,12.8768721 L28.5004682,15.3907894 L26.6997755,37.0763686 L24.8391472,41.9425198 L22.9789564,37.0763686 L21.1773887,15.3907894 L11.3497014,12.8768721 L19.0389567,37.136348 L13.5948799,32.5961716 L5.05471417,10.9623137 L5.69694373,5.8571144 L24.8391472,10.8988573 L43.9817881,5.8571144 Z"></path>
            </g>
            <path d="M62.4866935,38.14 L63.8371935,20.3615 L70.1641935,37.7885 L74.4561935,37.7885 L80.7831935,20.3615 L82.1521935,38.14 L89.2746935,38.14 L86.5736935,7.615 L78.9886935,7.615 L72.3101935,24.968 L65.6316935,7.615 L58.0466935,7.615 L55.3456935,38.14 L62.4866935,38.14 Z M119.475645,38.14 L119.475645,31.887 L109.060145,31.887 L109.060145,25.967 L119.031645,25.967 L119.031645,19.714 L109.060145,19.714 L109.060145,13.868 L119.475645,13.868 L119.475645,7.615 L101.937645,7.615 L101.937645,38.14 L119.475645,38.14 Z M136.486097,38.14 L138.687597,32.183 L150.268597,32.183 L152.451597,38.14 L160.129097,38.14 L147.789597,7.615 L141.166597,7.615 L128.808597,38.14 L136.486097,38.14 Z M147.826597,25.93 L141.111097,25.93 L144.478097,17.2905 L147.826597,25.93 Z M177.102548,38.14 L177.102548,19.4735 L189.090548,38.14 L196.213048,38.14 L196.213048,7.615 L189.090548,7.615 L189.090548,26.2815 L177.102548,7.615 L169.980048,7.615 L169.980048,38.14 L177.102548,38.14 Z" id="MEAN" fill="#000000" fill-rule="nonzero"></path>
        </g>
        <g id="Group" transform="translate(206.000000, 11.000000)">
            <rect id="Rectangle" fill="#B7001B" x="0" y="0" width="90" height="26" rx="13"></rect>
            <path d="M13.68,19 L13.68,14.464 L17.664,14.464 L17.664,12.376 L13.68,12.376 L13.68,9.424 L18.464,9.424 L18.464,7.344 L10.96,7.344 L10.96,19 L13.68,19 Z M22.832,19 L22.832,7.344 L20.112,7.344 L20.112,19 L22.832,19 Z M27.376,19 L27.376,12.752 C27.376,12.5813333 27.3706667,12.3986667 27.36,12.204 C27.3493333,12.0093333 27.336,11.8106667 27.32,11.608 L27.32,11.608 L32.816,18.552 C32.9493333,18.7226667 33.088,18.84 33.232,18.904 C33.376,18.968 33.552,19 33.76,19 L33.76,19 L35.168,19 L35.168,7.344 L32.784,7.344 L32.784,13.512 C32.784,13.6986667 32.7893333,13.8973333 32.8,14.108 C32.8106667,14.3186667 32.8266667,14.536 32.848,14.76 L32.848,14.76 L27.312,7.76 C27.2373333,7.66933333 27.1706667,7.59733333 27.112,7.544 C27.0533333,7.49066667 26.992,7.44933333 26.928,7.42 C26.864,7.39066667 26.792,7.37066667 26.712,7.36 C26.632,7.34933333 26.5333333,7.344 26.416,7.344 L26.416,7.344 L24.992,7.344 L24.992,19 L27.376,19 Z M38.256,19 C38.48,19 38.6693333,18.94 38.824,18.82 C38.9786667,18.7 39.0826667,18.5653333 39.136,18.416 L39.136,18.416 L39.824,16.384 L44.256,16.384 L44.944,18.416 C45.0026667,18.5866667 45.108,18.7266667 45.26,18.836 C45.412,18.9453333 45.6053333,19 45.84,19 L45.84,19 L47.936,19 L43.424,7.344 L40.656,7.344 L36.144,19 L38.256,19 Z M43.632,14.544 L40.448,14.544 L41.52,11.368 C41.6,11.1653333 41.6853333,10.9253333 41.776,10.648 C41.8666667,10.3706667 41.9546667,10.0693333 42.04,9.744 C42.1306667,10.064 42.2226667,10.3613333 42.316,10.636 C42.4093333,10.9106667 42.4906667,11.1493333 42.56,11.352 L42.56,11.352 L43.632,14.544 Z M51.264,19 L51.264,12.752 C51.264,12.5813333 51.2586667,12.3986667 51.248,12.204 C51.2373333,12.0093333 51.224,11.8106667 51.208,11.608 L51.208,11.608 L56.704,18.552 C56.8373333,18.7226667 56.976,18.84 57.12,18.904 C57.264,18.968 57.44,19 57.648,19 L57.648,19 L59.056,19 L59.056,7.344 L56.672,7.344 L56.672,13.512 C56.672,13.6986667 56.6773333,13.8973333 56.688,14.108 C56.6986667,14.3186667 56.7146667,14.536 56.736,14.76 L56.736,14.76 L51.2,7.76 C51.1253333,7.66933333 51.0586667,7.59733333 51,7.544 C50.9413333,7.49066667 50.88,7.44933333 50.816,7.42 C50.752,7.39066667 50.68,7.37066667 50.6,7.36 C50.52,7.34933333 50.4213333,7.344 50.304,7.344 L50.304,7.344 L48.88,7.344 L48.88,19 L51.264,19 Z M65.984,19.128 C66.9493333,19.128 67.7853333,18.972 68.492,18.66 C69.1986667,18.348 69.7866667,17.8853333 70.256,17.272 L70.256,17.272 L69.184,16.144 C69.1253333,16.0853333 69.064,16.044 69,16.02 C68.936,15.996 68.872,15.984 68.808,15.984 C68.728,15.984 68.6506667,16.0013333 68.576,16.036 C68.5013333,16.0706667 68.432,16.1146667 68.368,16.168 C68.208,16.3066667 68.0493333,16.4226667 67.892,16.516 C67.7346667,16.6093333 67.5693333,16.6853333 67.396,16.744 C67.2226667,16.8026667 67.0346667,16.844 66.832,16.868 C66.6293333,16.892 66.4053333,16.904 66.16,16.904 C65.7333333,16.904 65.3333333,16.8213333 64.96,16.656 C64.5866667,16.4906667 64.26,16.2493333 63.98,15.932 C63.7,15.6146667 63.4786667,15.224 63.316,14.76 C63.1533333,14.296 63.072,13.7653333 63.072,13.168 C63.072,12.5973333 63.1533333,12.0826667 63.316,11.624 C63.4786667,11.1653333 63.7053333,10.7746667 63.996,10.452 C64.2866667,10.1293333 64.6346667,9.88133333 65.04,9.708 C65.4453333,9.53466667 65.8933333,9.448 66.384,9.448 C66.6666667,9.448 66.9133333,9.46933333 67.124,9.512 C67.3346667,9.55466667 67.5186667,9.60666667 67.676,9.668 C67.8333333,9.72933333 67.9693333,9.796 68.084,9.868 C68.1986667,9.94 68.304,10.0066667 68.4,10.068 C68.496,10.1293333 68.5866667,10.1813333 68.672,10.224 C68.7573333,10.2666667 68.848,10.288 68.944,10.288 C69.088,10.288 69.2,10.2573333 69.28,10.196 C69.36,10.1346667 69.4293333,10.0666667 69.488,9.992 L69.488,9.992 L70.4,8.768 C70.1813333,8.53866667 69.9306667,8.32933333 69.648,8.14 C69.3653333,7.95066667 69.056,7.788 68.72,7.652 C68.384,7.516 68.0226667,7.40933333 67.636,7.332 C67.2493333,7.25466667 66.8373333,7.216 66.4,7.216 C65.4986667,7.216 64.6746667,7.36266667 63.928,7.656 C63.1813333,7.94933333 62.54,8.36 62.004,8.888 C61.468,9.416 61.0506667,10.044 60.752,10.772 C60.4533333,11.5 60.304,12.2986667 60.304,13.168 C60.304,14.0213333 60.4346667,14.812 60.696,15.54 C60.9573333,16.268 61.332,16.8973333 61.82,17.428 C62.308,17.9586667 62.9026667,18.3746667 63.604,18.676 C64.3053333,18.9773333 65.0986667,19.128 65.984,19.128 Z M78.992,19 L78.992,16.92 L74.208,16.92 L74.208,14.144 L77.872,14.144 L77.872,12.144 L74.208,12.144 L74.208,9.424 L78.992,9.424 L78.992,7.344 L71.488,7.344 L71.488,19 L78.992,19 Z" id="FINANCE" fill="#FFFFFF" fill-rule="nonzero"></path>
        </g>
    </g>
</svg>