<svg width="1600" height="198" xmlns="http://www.w3.org/2000/svg">
  <defs><linearGradient id="a" gradientTransform="rotate(90)"><stop offset="5%" stop-color="#a82125"/><stop offset="95%" stop-color="#a82125"/></linearGradient></defs>
<path fill="none" d="M0 0h1600v198H0z"/><path d="M0 99c62.608 5.062 125.215 10.124 176 3 50.785-7.124 89.747-26.435 139-23 49.253 3.435 108.798 29.616 170 28 61.202-1.616 124.06-31.028 172-30 47.94 1.028 80.963 32.498 126 37 45.037 4.502 102.087-17.962 160-24s116.688 4.35 174 7c57.312 2.65 113.16-2.44 163-5s93.668-2.588 146-1c52.332 1.588 113.166 4.794 214 8l-40 99H0Z" fill="url(#a)"/></svg>