<svg width="1600" height="198" xmlns="http://www.w3.org/2000/svg">
  <defs><linearGradient id="a" gradientTransform="rotate(90)"><stop offset="5%" stop-color="#5c9937"/><stop offset="95%" stop-color="#5c9937"/></linearGradient></defs>
<path fill="none" d="M0 0h1600v198H0z"/><path d="M0 99c50.308-1.517 100.616-3.034 160-3 59.384.034 127.843 1.618 176 1 48.157-.618 76.011-3.44 128 0 51.989 3.44 128.113 13.141 182 7s85.537-28.124 136-26c50.463 2.124 119.737 28.357 176 39 56.263 10.643 99.514 5.698 149-6 49.486-11.698 105.208-30.15 160-31 54.792-.85 108.655 15.9 164 22s112.173 1.55 209-3l-40 99H0Z" fill="url(#a)"/></svg>