<svg xmlns="http://www.w3.org/2000/svg" xml:space="preserve" style="fill-rule:evenodd;clip-rule:evenodd;stroke-linejoin:round;stroke-miterlimit:2" viewBox="0 0 1000 1000">
  <path d="M10 10h290v220H10z" style="fill:#df2f2f" transform="matrix(3.44828 0 0 4.54545 -34.483 -45.455)"/>
  <path d="M621.92 327.07c-48.28 0-91.71 20.71-121.92 53.72-30.21-33.01-73.65-53.72-121.92-53.72-91.25 0-165.22 73.97-165.22 165.22v180.65h86.62V492.13c0-43.41 35.19-78.6 78.6-78.6s78.6 35.19 78.6 78.6v180.81h86.64V492.13c0-43.41 35.19-78.6 78.6-78.6s78.6 35.19 78.6 78.6v180.81h86.62V492.29c0-91.25-73.97-165.22-165.22-165.22Z" style="fill:#fff;fill-rule:nonzero" transform="translate(-154.769 -154.776) scale(1.30954)"/>
</svg>