<?xml version="1.0" encoding="UTF-8"?>
<svg width="265px" height="48px" viewBox="0 0 265 48" version="1.1" xmlns="http://www.w3.org/2000/svg" xmlns:xlink="http://www.w3.org/1999/xlink">
    <title>Mean Pay Logo Raster 2 Copy</title>
    <defs>
        <linearGradient x1="50%" y1="0%" x2="50%" y2="100%" id="linearGradient-1">
            <stop stop-color="#FF0017" offset="0%"></stop>
            <stop stop-color="#B7001C" offset="100%"></stop>
        </linearGradient>
    </defs>
    <g id="Mean-Pay-Logo-Raster-2-Copy" stroke="none" stroke-width="1" fill="none" fill-rule="evenodd">
        <path d="M48.3238374,0 L24.8400221,6.18221989 L1.35620685,0 L0,10.7702059 L9.72181567,35.3912965 L24.8417721,48 L39.9577911,35.3912965 L49.6774194,10.7702059 L48.3238374,0 Z M43.9817881,5.8571144 L44.6240176,10.9623137 L36.0834144,32.5961716 L30.6393376,37.136348 L38.328593,12.8768721 L28.5004682,15.3907894 L26.6997755,37.0763686 L24.8391472,41.9425198 L22.9789564,37.0763686 L21.1773887,15.3907894 L11.3497014,12.8768721 L19.0389567,37.136348 L13.5948799,32.5961716 L5.05471417,10.9623137 L5.69694373,5.8571144 L24.8391472,10.8988573 L43.9817881,5.8571144 Z" id="Fill-1-Copy" fill="url(#linearGradient-1)"></path>
        <path d="M62.4866935,38.14 L63.8371935,20.3615 L70.1641935,37.7885 L74.4561935,37.7885 L80.7831935,20.3615 L82.1521935,38.14 L89.2746935,38.14 L86.5736935,7.615 L78.9886935,7.615 L72.3101935,24.968 L65.6316935,7.615 L58.0466935,7.615 L55.3456935,38.14 L62.4866935,38.14 Z M119.475645,38.14 L119.475645,31.887 L109.060145,31.887 L109.060145,25.967 L119.031645,25.967 L119.031645,19.714 L109.060145,19.714 L109.060145,13.868 L119.475645,13.868 L119.475645,7.615 L101.937645,7.615 L101.937645,38.14 L119.475645,38.14 Z M136.486097,38.14 L138.687597,32.183 L150.268597,32.183 L152.451597,38.14 L160.129097,38.14 L147.789597,7.615 L141.166597,7.615 L128.808597,38.14 L136.486097,38.14 Z M147.826597,25.93 L141.111097,25.93 L144.478097,17.2905 L147.826597,25.93 Z M177.102548,38.14 L177.102548,19.4735 L189.090548,38.14 L196.213048,38.14 L196.213048,7.615 L189.090548,7.615 L189.090548,26.2815 L177.102548,7.615 L169.980048,7.615 L169.980048,38.14 L177.102548,38.14 Z" id="MEAN" fill="#FFFFFF" fill-rule="nonzero"></path>
        <g id="Group" transform="translate(206.000000, 9.000000)">
            <rect id="Rectangle" fill="#B7001B" x="0" y="0" width="50" height="27" rx="13.5"></rect>
            <path d="M13.664,20 L13.664,16.104 L15.072,16.104 C15.8773333,16.104 16.5746667,16.0066667 17.164,15.812 C17.7533333,15.6173333 18.24,15.3466667 18.624,15 C19.008,14.6533333 19.2933333,14.2373333 19.48,13.752 C19.6666667,13.2666667 19.76,12.7333333 19.76,12.152 C19.76,11.6133333 19.6693333,11.112 19.488,10.648 C19.3066667,10.184 19.0253333,9.78133333 18.644,9.44 C18.2626667,9.09866667 17.7773333,8.83066667 17.188,8.636 C16.5986667,8.44133333 15.8933333,8.344 15.072,8.344 L15.072,8.344 L10.96,8.344 L10.96,20 L13.664,20 Z M15.072,14.064 L13.664,14.064 L13.664,10.368 L15.072,10.368 C15.4133333,10.368 15.708,10.4106667 15.956,10.496 C16.204,10.5813333 16.4093333,10.7026667 16.572,10.86 C16.7346667,11.0173333 16.856,11.2053333 16.936,11.424 C17.016,11.6426667 17.056,11.8853333 17.056,12.152 C17.056,12.7546667 16.9013333,13.224 16.592,13.56 C16.2826667,13.896 15.776,14.064 15.072,14.064 L15.072,14.064 Z M20.976,20 C21.2,20 21.3893333,19.94 21.544,19.82 C21.6986667,19.7 21.8026667,19.5653333 21.856,19.416 L21.856,19.416 L22.544,17.384 L26.976,17.384 L27.664,19.416 C27.7226667,19.5866667 27.828,19.7266667 27.98,19.836 C28.132,19.9453333 28.3253333,20 28.56,20 L28.56,20 L30.656,20 L26.144,8.344 L23.376,8.344 L18.864,20 L20.976,20 Z M26.352,15.544 L23.168,15.544 L24.24,12.368 C24.32,12.1653333 24.4053333,11.9253333 24.496,11.648 C24.5866667,11.3706667 24.6746667,11.0693333 24.76,10.744 C24.8506667,11.064 24.9426667,11.3613333 25.036,11.636 C25.1293333,11.9106667 25.2106667,12.1493333 25.28,12.352 L25.28,12.352 L26.352,15.544 Z M35.808,20 L35.808,15.568 L40.032,8.344 L37.632,8.344 C37.52,8.344 37.4173333,8.36133333 37.324,8.396 C37.2306667,8.43066667 37.148,8.476 37.076,8.532 C37.004,8.588 36.94,8.65066667 36.884,8.72 C36.828,8.78933333 36.784,8.85866667 36.752,8.928 L36.752,8.928 L35.12,12.32 C34.992,12.5866667 34.872,12.8346667 34.76,13.064 C34.648,13.2933333 34.552,13.5226667 34.472,13.752 C34.3866667,13.528 34.288,13.3013333 34.176,13.072 C34.064,12.8426667 33.9413333,12.592 33.808,12.32 L33.808,12.32 L32.16,8.928 C32.0746667,8.75733333 31.9626667,8.61733333 31.824,8.508 C31.6853333,8.39866667 31.4986667,8.344 31.264,8.344 L31.264,8.344 L28.88,8.344 L33.104,15.568 L33.104,20 L35.808,20 Z" id="PAY" fill="#FFFFFF" fill-rule="nonzero"></path>
        </g>
    </g>
</svg>