<?xml version="1.0" encoding="UTF-8"?>
<svg width="265px" height="48px" viewBox="0 0 265 48" version="1.1" xmlns="http://www.w3.org/2000/svg" xmlns:xlink="http://www.w3.org/1999/xlink">
    <title>Mean Pay Logo Raster</title>
    <defs>
        <linearGradient x1="50%" y1="0%" x2="50%" y2="100%" id="linearGradient-1">
            <stop stop-color="#FF0017" offset="0%"></stop>
            <stop stop-color="#B7001C" offset="100%"></stop>
        </linearGradient>
    </defs>
    <g id="Mean-Pay-Logo-Raster" stroke="none" stroke-width="1" fill="none" fill-rule="evenodd">
        <path d="M48.3238374,0 L24.8400221,6.18221989 L1.35620685,0 L0,10.7702059 L9.72181567,35.3912965 L24.8417721,48 L39.9577911,35.3912965 L49.6774194,10.7702059 L48.3238374,0 Z M43.9817881,5.8571144 L44.6240176,10.9623137 L36.0834144,32.5961716 L30.6393376,37.136348 L38.328593,12.8768721 L28.5004682,15.3907894 L26.6997755,37.0763686 L24.8391472,41.9425198 L22.9789564,37.0763686 L21.1773887,15.3907894 L11.3497014,12.8768721 L19.0389567,37.136348 L13.5948799,32.5961716 L5.05471417,10.9623137 L5.69694373,5.8571144 L24.8391472,10.8988573 L43.9817881,5.8571144 Z" id="Fill-1-Copy" fill="url(#linearGradient-1)"></path>
        <path d="M64.9116935,29.14 L66.0431935,14.2445 L71.3441935,28.8455 L74.9401935,28.8455 L80.2411935,14.2445 L81.3881935,29.14 L87.3556935,29.14 L85.0926935,3.565 L78.7376935,3.565 L73.1421935,18.104 L67.5466935,3.565 L61.1916935,3.565 L58.9286935,29.14 L64.9116935,29.14 Z M112.659194,29.14 L112.659194,23.901 L103.932694,23.901 L103.932694,18.941 L112.287194,18.941 L112.287194,13.702 L103.932694,13.702 L103.932694,8.804 L112.659194,8.804 L112.659194,3.565 L97.9651935,3.565 L97.9651935,29.14 L112.659194,29.14 Z M126.911194,29.14 L128.755694,24.149 L138.458694,24.149 L140.287694,29.14 L146.720194,29.14 L136.381694,3.565 L130.832694,3.565 L120.478694,29.14 L126.911194,29.14 Z M136.412694,18.91 L130.786194,18.91 L133.607194,11.6715 L136.412694,18.91 Z M160.941194,29.14 L160.941194,13.5005 L170.985194,29.14 L176.952694,29.14 L176.952694,3.565 L170.985194,3.565 L170.985194,19.2045 L160.941194,3.565 L154.973694,3.565 L154.973694,29.14 L160.941194,29.14 Z" id="MEAN" fill="#000000" fill-rule="nonzero"></path>
        <path d="M60.1804435,42.14 L60.1804435,39.8768164 L61.6438225,39.8768164 C62.8347404,39.8768164 63.682885,39.0374609 63.682885,37.8333594 C63.682885,36.6336523 62.8435295,35.7986914 61.6526115,35.7986914 L59.3894279,35.7986914 L59.3894279,42.14 L60.1804435,42.14 Z M61.4460685,39.1736914 L60.1804435,39.1736914 L60.1804435,36.5018164 L61.4460685,36.5018164 C62.3557365,36.5018164 62.8698967,36.9940039 62.8698967,37.8333594 C62.8698967,38.6771094 62.351342,39.1736914 61.4460685,39.1736914 Z M64.8299553,42.14 L65.4671623,40.3250586 L67.9896232,40.3250586 L68.6268303,42.14 L69.4573967,42.14 L67.119506,35.7986914 L66.3372795,35.7986914 L63.9993889,42.14 L64.8299553,42.14 Z M67.7567131,39.6526953 L65.7000725,39.6526953 L66.7152092,36.7610937 L66.7415764,36.7610937 L67.7567131,39.6526953 Z M72.3271232,42.14 L72.3271232,39.4109961 L74.5771232,35.7986914 L73.6762443,35.7986914 L71.944799,38.6463477 L71.9184318,38.6463477 L70.1869865,35.7986914 L69.2861076,35.7986914 L71.5361076,39.4109961 L71.5361076,42.14 L72.3271232,42.14 Z M76.4405021,42.14 L76.4405021,37.2532812 L76.4712639,37.2532812 L78.4927482,42.14 L79.160717,42.14 L81.1822014,37.2532812 L81.2129631,37.2532812 L81.2129631,42.14 L81.9512443,42.14 L81.9512443,35.7986914 L81.0327873,35.7986914 L78.8443107,41.1336523 L78.8091545,41.1336523 L76.6206779,35.7986914 L75.7022209,35.7986914 L75.7022209,42.14 L76.4405021,42.14 Z M87.510424,42.14 L87.510424,41.4280859 L84.3727287,41.4280859 L84.3727287,39.2483984 L87.3478264,39.2483984 L87.3478264,38.5452734 L84.3727287,38.5452734 L84.3727287,36.5106055 L87.510424,36.5106055 L87.510424,35.7986914 L83.5817131,35.7986914 L83.5817131,42.14 L87.510424,42.14 Z M89.7341545,42.14 L89.7341545,37.1785742 L89.7737053,37.1785742 L93.245385,42.14 L94.0144279,42.14 L94.0144279,35.7986914 L93.2322014,35.7986914 L93.2322014,40.7776953 L93.1926506,40.7776953 L89.7209709,35.7986914 L88.9519279,35.7986914 L88.9519279,42.14 L89.7341545,42.14 Z M98.0399162,42.14 L98.0399162,36.5106055 L100.039428,36.5106055 L100.039428,35.7986914 L95.2493889,35.7986914 L95.2493889,36.5106055 L97.2489006,36.5106055 L97.2489006,42.14 L98.0399162,42.14 Z M103.348608,42.2454687 C104.768041,42.2454687 105.690893,41.511582 105.690893,40.3382422 C105.690893,39.4417578 105.167944,38.9144141 103.84519,38.624375 L103.142065,38.4705664 C102.276342,38.2816016 101.937963,37.9388281 101.937963,37.4378516 C101.937963,36.7918555 102.548803,36.4051367 103.339819,36.4051367 C104.16599,36.4051367 104.715307,36.8314062 104.785619,37.5257422 L105.576635,37.5257422 C105.541479,36.449082 104.627416,35.6932227 103.361791,35.6932227 C102.047826,35.6932227 101.124975,36.4271094 101.124975,37.4730078 C101.124975,38.3738867 101.674291,38.9495703 102.944311,39.2264258 L103.647436,39.3802344 C104.526342,39.5735937 104.877904,39.9251562 104.877904,40.4568945 C104.877904,41.080918 104.253881,41.5335547 103.392553,41.5335547 C102.482885,41.5335547 101.850072,41.1204687 101.757787,40.4393164 L100.966772,40.4393164 C101.041479,41.5335547 101.96433,42.2454687 103.348608,42.2454687 Z M112.296166,42.14 L112.296166,39.393418 L115.104272,39.393418 L115.104272,38.690293 L112.296166,38.690293 L112.296166,36.5106055 L115.35476,36.5106055 L115.35476,35.7986914 L111.505151,35.7986914 L111.505151,42.14 L112.296166,42.14 Z M119.331908,42.2454687 C121.129272,42.2454687 122.254272,40.9842383 122.254272,38.971543 C122.254272,36.9588477 121.129272,35.6932227 119.331908,35.6932227 C117.534545,35.6932227 116.409545,36.9588477 116.409545,38.971543 C116.409545,40.9842383 117.534545,42.2454687 119.331908,42.2454687 Z M119.331908,41.5159766 C118.035522,41.5159766 117.222533,40.5316016 117.222533,38.971543 C117.222533,37.4070898 118.035522,36.4227148 119.331908,36.4227148 C120.628295,36.4227148 121.441283,37.4070898 121.441283,38.971543 C121.441283,40.5316016 120.628295,41.5159766 119.331908,41.5159766 Z M124.429662,42.14 L124.429662,39.6307227 L125.945776,39.6307227 L127.303686,42.14 L128.230932,42.14 L126.763158,39.5076758 C127.558569,39.2571875 128.037572,38.5716406 128.037572,37.6883398 C128.037572,36.5457617 127.237768,35.7986914 126.016088,35.7986914 L123.638647,35.7986914 L123.638647,42.14 L124.429662,42.14 Z M125.945776,38.9319922 L124.429662,38.9319922 L124.429662,36.5018164 L125.910619,36.5018164 C126.728002,36.5018164 127.22019,36.9544531 127.22019,37.714707 C127.22019,38.4925391 126.758764,38.9319922 125.945776,38.9319922 Z M134.247338,42.14 L134.884545,40.3250586 L137.407006,40.3250586 L138.044213,42.14 L138.874779,42.14 L136.536889,35.7986914 L135.754662,35.7986914 L133.416772,42.14 L134.247338,42.14 Z M137.174096,39.6526953 L135.117455,39.6526953 L136.132592,36.7610937 L136.158959,36.7610937 L137.174096,39.6526953 Z M146.622631,42.14 C148.507885,42.14 149.615307,40.9666602 149.615307,38.9671484 C149.615307,36.9720312 148.50349,35.7986914 146.622631,35.7986914 L144.491283,35.7986914 L144.491283,42.14 L146.622631,42.14 Z M146.569897,41.4280859 L145.282299,41.4280859 L145.282299,36.5106055 L146.569897,36.5106055 C148.011303,36.5106055 148.806713,37.3895117 148.806713,38.9759375 C148.806713,40.5491797 148.006908,41.4280859 146.569897,41.4280859 Z M154.928393,42.14 L154.928393,41.4280859 L151.790697,41.4280859 L151.790697,39.2483984 L154.765795,39.2483984 L154.765795,38.5452734 L151.790697,38.5452734 L151.790697,36.5106055 L154.928393,36.5106055 L154.928393,35.7986914 L150.999682,35.7986914 L150.999682,42.14 L154.928393,42.14 Z M158.980248,42.2454687 C160.382104,42.2454687 161.322533,41.5467383 161.612572,40.2942969 L160.812768,40.2942969 C160.584252,41.0677344 159.916283,41.5159766 158.984643,41.5159766 C157.732201,41.5159766 156.936791,40.5228125 156.936791,38.9671484 C156.936791,37.424668 157.74099,36.4227148 158.980248,36.4227148 C159.885522,36.4227148 160.610619,36.9676367 160.812768,37.7982031 L161.612572,37.7982031 C161.410424,36.5325781 160.360131,35.6932227 158.980248,35.6932227 C157.244408,35.6932227 156.123803,36.9764258 156.123803,38.9671484 C156.123803,40.9754492 157.231225,42.2454687 158.980248,42.2454687 Z M166.872924,42.14 L166.872924,41.4280859 L163.735229,41.4280859 L163.735229,39.2483984 L166.710326,39.2483984 L166.710326,38.5452734 L163.735229,38.5452734 L163.735229,36.5106055 L166.872924,36.5106055 L166.872924,35.7986914 L162.944213,35.7986914 L162.944213,42.14 L166.872924,42.14 Z M169.096654,42.14 L169.096654,37.1785742 L169.136205,37.1785742 L172.607885,42.14 L173.376928,42.14 L173.376928,35.7986914 L172.594701,35.7986914 L172.594701,40.7776953 L172.555151,40.7776953 L169.083471,35.7986914 L168.314428,35.7986914 L168.314428,42.14 L169.096654,42.14 Z M177.402416,42.14 L177.402416,36.5106055 L179.401928,36.5106055 L179.401928,35.7986914 L174.611889,35.7986914 L174.611889,36.5106055 L176.611401,36.5106055 L176.611401,42.14 L177.402416,42.14 Z M181.427904,42.14 L181.427904,39.6307227 L182.944018,39.6307227 L184.301928,42.14 L185.229174,42.14 L183.761401,39.5076758 C184.556811,39.2571875 185.035815,38.5716406 185.035815,37.6883398 C185.035815,36.5457617 184.23601,35.7986914 183.01433,35.7986914 L180.636889,35.7986914 L180.636889,42.14 L181.427904,42.14 Z M182.944018,38.9319922 L181.427904,38.9319922 L181.427904,36.5018164 L182.908862,36.5018164 C183.726244,36.5018164 184.218432,36.9544531 184.218432,37.714707 C184.218432,38.4925391 183.757006,38.9319922 182.944018,38.9319922 Z M186.754174,42.14 L187.391381,40.3250586 L189.913842,40.3250586 L190.551049,42.14 L191.381615,42.14 L189.043725,35.7986914 L188.261498,35.7986914 L185.923608,42.14 L186.754174,42.14 Z M189.680932,39.6526953 L187.624291,39.6526953 L188.639428,36.7610937 L188.665795,36.7610937 L189.680932,39.6526953 Z M196.356322,42.14 L196.356322,41.4280859 L193.297729,41.4280859 L193.297729,35.7986914 L192.506713,35.7986914 L192.506713,42.14 L196.356322,42.14 Z M198.417455,42.14 L198.417455,35.7986914 L197.62644,35.7986914 L197.62644,42.14 L198.417455,42.14 Z M204.552319,42.14 L204.552319,41.4280859 L200.87849,41.4280859 L200.87849,41.3973242 L204.477612,36.3611914 L204.477612,35.7986914 L199.986401,35.7986914 L199.986401,36.5106055 L203.480053,36.5106055 L203.480053,36.5413672 L199.863354,41.5775 L199.863354,42.14 L204.552319,42.14 Z M209.926928,42.14 L209.926928,41.4280859 L206.789233,41.4280859 L206.789233,39.2483984 L209.76433,39.2483984 L209.76433,38.5452734 L206.789233,38.5452734 L206.789233,36.5106055 L209.926928,36.5106055 L209.926928,35.7986914 L205.998217,35.7986914 L205.998217,42.14 L209.926928,42.14 Z M213.499779,42.14 C215.385033,42.14 216.492455,40.9666602 216.492455,38.9671484 C216.492455,36.9720312 215.380639,35.7986914 213.499779,35.7986914 L211.368432,35.7986914 L211.368432,42.14 L213.499779,42.14 Z M213.447045,41.4280859 L212.159447,41.4280859 L212.159447,36.5106055 L213.447045,36.5106055 C214.888451,36.5106055 215.683862,37.3895117 215.683862,38.9759375 C215.683862,40.5491797 214.884057,41.4280859 213.447045,41.4280859 Z M224.424877,42.14 L225.888256,37.1082617 L225.932201,37.1082617 L227.39558,42.14 L228.142651,42.14 L229.869701,35.7986914 L229.043529,35.7986914 L227.77351,40.9754492 L227.738354,40.9754492 L226.310131,35.7986914 L225.510326,35.7986914 L224.082104,40.9754492 L224.046947,40.9754492 L222.776928,35.7986914 L221.950756,35.7986914 L223.677807,42.14 L224.424877,42.14 Z M233.539233,42.2454687 C235.336596,42.2454687 236.461596,40.9842383 236.461596,38.971543 C236.461596,36.9588477 235.336596,35.6932227 233.539233,35.6932227 C231.741869,35.6932227 230.616869,36.9588477 230.616869,38.971543 C230.616869,40.9842383 231.741869,42.2454687 233.539233,42.2454687 Z M233.539233,41.5159766 C232.242846,41.5159766 231.429858,40.5316016 231.429858,38.971543 C231.429858,37.4070898 232.242846,36.4227148 233.539233,36.4227148 C234.835619,36.4227148 235.648608,37.4070898 235.648608,38.971543 C235.648608,40.5316016 234.835619,41.5159766 233.539233,41.5159766 Z M238.636987,42.14 L238.636987,39.6307227 L240.1531,39.6307227 L241.51101,42.14 L242.438256,42.14 L240.970483,39.5076758 C241.765893,39.2571875 242.244897,38.5716406 242.244897,37.6883398 C242.244897,36.5457617 241.445092,35.7986914 240.223412,35.7986914 L237.845971,35.7986914 L237.845971,42.14 L238.636987,42.14 Z M240.1531,38.9319922 L238.636987,38.9319922 L238.636987,36.5018164 L240.117944,36.5018164 C240.935326,36.5018164 241.427514,36.9544531 241.427514,37.714707 C241.427514,38.4925391 240.966088,38.9319922 240.1531,38.9319922 Z M247.48767,42.14 L247.48767,41.4280859 L244.429076,41.4280859 L244.429076,35.7986914 L243.638061,35.7986914 L243.638061,42.14 L247.48767,42.14 Z M250.889135,42.14 C252.774389,42.14 253.881811,40.9666602 253.881811,38.9671484 C253.881811,36.9720312 252.769994,35.7986914 250.889135,35.7986914 L248.757787,35.7986914 L248.757787,42.14 L250.889135,42.14 Z M250.836401,41.4280859 L249.548803,41.4280859 L249.548803,36.5106055 L250.836401,36.5106055 C252.277807,36.5106055 253.073217,37.3895117 253.073217,38.9759375 C253.073217,40.5491797 252.273412,41.4280859 250.836401,41.4280859 Z" id="PAYMENTSFORADECENTRALIZEDWORLD" fill="#000000" fill-rule="nonzero"></path>
        <g id="Group" transform="translate(186.000000, 3.000000)">
            <rect id="Rectangle" fill="#B7001B" x="0" y="0" width="71" height="26" rx="13"></rect>
            <path d="M21.09375,19 L21.09375,15.921875 L22.703125,15.921875 C25.3359375,15.921875 27.125,14.3203125 27.125,11.8359375 C27.125,9.328125 25.4375,7.7265625 22.9296875,7.7265625 L17.78125,7.7265625 L17.78125,19 L21.09375,19 Z M22.0234375,13.4765625 L21.09375,13.4765625 L21.09375,10.21875 L22.046875,10.21875 C23.125,10.21875 23.78125,10.7734375 23.78125,11.84375 C23.78125,12.921875 23.125,13.4765625 22.0234375,13.4765625 Z M32.558871,19 L33.1448085,16.7578125 L36.5823085,16.7578125 L37.168246,19 L40.699496,19 L37.0198085,7.7265625 L32.8635585,7.7265625 L29.183871,19 L32.558871,19 Z M35.980746,14.421875 L33.746371,14.421875 L34.8323085,10.328125 L34.8948085,10.328125 L35.980746,14.421875 Z M49.2974294,19 L49.2974294,15.4296875 L53.1489919,7.7265625 L49.6880544,7.7265625 L47.7114919,12.296875 L47.6489919,12.296875 L45.6724294,7.7265625 L42.1333669,7.7265625 L45.9849294,15.4296875 L45.9849294,19 L49.2974294,19 Z" id="PAY" fill="#FFFFFF" fill-rule="nonzero"></path>
        </g>
    </g>
</svg>