<svg width="40" height="40" viewBox="0 0 40 40" fill="none" xmlns="http://www.w3.org/2000/svg">
<circle cx="20" cy="20" r="20" fill="#FF2938"/>
<path fill-rule="evenodd" clip-rule="evenodd" d="M12.4784 29.8286H8.63185C7.48463 29.8286 6.94476 29.8286 6.60735 29.6257C6.26993 29.3552 6 29.0167 6 28.5432C6 28.1374 6.26993 27.6639 6.8098 26.7167L17.5396 7.84339C18.0795 6.82869 18.3494 6.35515 18.7543 6.15221C19.1592 5.94926 19.6316 5.94926 19.969 6.15221C20.3065 6.35515 20.5764 6.82869 21.1837 7.84339L23.1408 11.2933C23.7481 12.3757 24.0855 12.9169 24.2205 13.4581C24.3554 14.0669 24.3554 14.7433 24.2205 15.3522C24.0855 15.8933 23.7481 16.4345 23.1408 17.5169L17.8771 26.7167C17.2697 27.7992 16.9323 28.3403 16.5274 28.7461C16.055 29.2196 15.5152 29.4904 14.9078 29.6933C14.3679 29.8286 13.6931 29.8286 12.4784 29.8286Z" fill="white"/>
<path fill-rule="evenodd" clip-rule="evenodd" d="M31.0361 29.8289H25.1651C24.0178 29.8289 23.478 29.8289 23.1406 29.626C22.8032 29.4231 22.5332 29.0173 22.5332 28.5438C22.5332 28.1377 22.8032 27.6642 23.343 26.6497L26.2448 21.6437C26.7847 20.6967 27.0546 20.2232 27.4595 20.0202C27.8644 19.8173 28.2693 19.8173 28.6742 20.0202C29.0116 20.2232 29.2815 20.6967 29.8889 21.6437L32.7907 26.6497C33.3306 27.5966 33.668 28.1377 33.6005 28.5438C33.6005 28.9496 33.3306 29.3555 32.9931 29.626C32.7232 29.8289 32.1833 29.8289 31.0361 29.8289Z" fill="white"/>
</svg>
