<svg width="40" height="40" viewBox="0 0 40 40" fill="none" xmlns="http://www.w3.org/2000/svg">
<path d="M39.3971 24.8381C36.726 35.5525 25.8741 42.0731 15.1584 39.4012C4.44722 36.7301 -2.07335 25.8775 0.598971 15.1639C3.26894 4.44838 14.1209 -2.07268 24.8332 0.598468C35.5481 3.26961 42.0683 14.1234 39.3968 24.8383L39.397 24.8381H39.3971Z" fill="#F7931A"/>
<path d="M28.8168 17.1505C29.2148 14.4889 27.1885 13.0582 24.4177 12.1038L25.3165 8.49851L23.1219 7.95165L22.2468 11.462C21.6699 11.3181 21.0774 11.1826 20.4885 11.0481L21.3698 7.51457L19.1765 6.96771L18.2772 10.5719C17.7997 10.4632 17.3308 10.3557 16.8758 10.2425L16.8784 10.2312L13.8519 9.4754L13.268 11.8195C13.268 11.8195 14.8963 12.1927 14.862 12.2157C15.7507 12.4375 15.9114 13.0258 15.8847 13.4921L14.8608 17.5994C14.922 17.6149 15.0014 17.6374 15.089 17.6726C15.0158 17.6544 14.9379 17.6346 14.857 17.6152L13.4218 23.369C13.3132 23.639 13.0375 24.0442 12.4162 23.8903C12.4382 23.9222 10.8211 23.4923 10.8211 23.4923L9.73145 26.0045L12.5875 26.7164C13.1188 26.8497 13.6394 26.9891 14.1522 27.1202L13.244 30.7668L15.4361 31.3137L16.3355 27.7057C16.9344 27.8683 17.5155 28.0183 18.0845 28.1596L17.1881 31.7506L19.3829 32.2974L20.291 28.6576C24.0334 29.3659 26.8473 29.0803 28.0318 25.6953C28.9862 22.97 27.9843 21.3981 26.0154 20.373C27.4494 20.0423 28.5296 19.0991 28.8176 17.1508L28.8169 17.1503L28.8168 17.1505ZM23.8025 24.1818C23.1242 26.9072 18.5356 25.4339 17.048 25.0645L18.2531 20.2333C19.7407 20.6047 24.5113 21.3396 23.8026 24.1818H23.8025ZM24.4812 17.111C23.8625 19.59 20.0434 18.3305 18.8045 18.0217L19.8971 13.6401C21.136 13.9489 25.1257 14.5253 24.4814 17.111H24.4812Z" fill="white"/>
</svg>
