<svg width="40" height="40" viewBox="0 0 40 40" fill="none" xmlns="http://www.w3.org/2000/svg">
<circle cx="20" cy="20" r="20" fill="#F3BA2E"/>
<path fill-rule="evenodd" clip-rule="evenodd" d="M19.9917 11.2325L13.7805 17.4467L10.1664 13.8307L19.9917 4L29.8204 13.8339L26.2062 17.4499L19.9917 11.2325ZM7.6143 16.3834L4 19.9995L7.6141 23.6154L11.2284 19.9993L7.6143 16.3834ZM13.7805 22.5533L19.9917 28.7675L26.2061 22.5502L29.8222 26.1643L29.8204 26.1662L19.9917 36L10.1661 26.1696L10.161 26.1645L13.7805 22.5533ZM32.37 16.3854L28.7557 20.0015L32.3698 23.6174L35.9841 20.0013L32.37 16.3854Z" fill="white"/>
<path d="M23.6578 19.9981H23.6594L19.992 16.3288L17.2816 19.0405H17.2815L16.9701 19.3522L16.3279 19.9949L16.3228 19.9998L16.3279 20.0051L19.992 23.6712L23.6594 20.0019L23.6612 19.9998L23.6578 19.9981Z" fill="white"/>
</svg>
