<svg width="40" height="40" viewBox="0 0 40 40" fill="none" xmlns="http://www.w3.org/2000/svg">
<circle cx="20" cy="20" r="20" fill="#FF0420"/>
<path fill-rule="evenodd" clip-rule="evenodd" d="M11.2384 24.4636C12.0969 25.0534 13.1237 25.3483 14.1643 25.3039C15.6048 25.3039 16.7548 24.9688 17.6145 24.2987C18.475 23.6185 19.0802 22.5932 19.4299 21.2229C19.6397 20.3827 19.8197 19.5175 19.9699 18.6272C20.0147 18.3644 20.0398 18.0987 20.045 17.8321C20.0629 17.1918 19.8794 16.562 19.5204 16.0315C19.1644 15.5166 18.6629 15.1196 18.0801 14.8911C17.4235 14.6221 16.719 14.4894 16.0096 14.501C13.179 14.501 11.4236 15.8764 10.7433 18.6272C10.5033 19.6364 10.3183 20.5016 10.1883 21.2229C10.1428 21.4907 10.1177 21.7615 10.1132 22.0331C10.0645 22.9793 10.4855 23.8885 11.2384 24.4636ZM15.8001 22.6482C15.4012 22.9816 14.8942 23.1576 14.3745 23.1433C13.414 23.1433 12.9338 22.6832 12.9338 21.7629C12.933 21.5514 12.9531 21.3403 12.9938 21.1328C13.1737 20.1625 13.3537 19.3423 13.5338 18.6721C13.6474 18.0911 13.9414 17.5608 14.3742 17.1567C14.7796 16.8247 15.2906 16.6491 15.8145 16.6616C16.7646 16.6614 17.2397 17.1165 17.2397 18.0269C17.2401 18.2434 17.22 18.4594 17.1797 18.6721C17.0602 19.3727 16.8853 20.1929 16.6551 21.1328C16.5408 21.7168 16.2409 22.2484 15.8001 22.6482Z" fill="white"/>
<path fill-rule="evenodd" clip-rule="evenodd" d="M20.481 25.0492C20.5456 25.1211 20.6395 25.1597 20.7361 25.1541L22.7774 25.1544C22.8815 25.1528 22.982 25.1158 23.0623 25.0495C23.1493 24.9835 23.2079 24.8869 23.2262 24.7793L23.9164 21.4934H25.9416C27.252 21.4934 28.2823 21.2184 29.0325 20.6682C29.8411 20.0394 30.3824 19.1283 30.5479 18.1174C30.6064 17.8613 30.6366 17.5997 30.638 17.337C30.6745 16.5382 30.2866 15.7795 29.6177 15.3413C28.818 14.8457 27.8866 14.605 26.9469 14.6511H22.9557C22.8515 14.6527 22.7509 14.6897 22.6705 14.7561C22.5835 14.822 22.5249 14.9186 22.5066 15.0262L20.4361 24.779C20.4149 24.8715 20.4311 24.9685 20.481 25.0492ZM27.143 19.0774C26.8257 19.3097 26.4407 19.431 26.0475 19.4223H24.3223L24.8925 16.7367H26.6928C27.0026 16.7063 27.3126 16.7918 27.563 16.9767C27.7418 17.148 27.8353 17.39 27.818 17.637C27.816 17.7881 27.801 17.9387 27.7731 18.0872C27.6942 18.4844 27.4694 18.8377 27.143 19.0774Z" fill="white"/>
</svg>
