<svg width="40" height="40" viewBox="0 0 40 40" fill="none" xmlns="http://www.w3.org/2000/svg">
<circle cx="20" cy="20" r="20" fill="#8247E5"/>
<path d="M27.1293 15.3318C26.6122 15.0277 25.9407 15.0277 25.3726 15.3318L21.343 17.6662L18.6053 19.1884L14.5757 21.5221C14.0593 21.8269 13.3871 21.8269 12.819 21.5221L9.61599 19.6956C9.09962 19.3907 8.73767 18.8326 8.73767 18.2243V14.6216C8.73767 14.0126 9.04791 13.4545 9.61599 13.1503L12.7673 11.3741C13.2844 11.0699 13.9559 11.0699 14.524 11.3741L17.6753 13.1503C18.1917 13.4545 18.5536 14.0126 18.5536 14.6216V16.9553L21.2913 15.3828V13.0484C21.2913 12.4394 20.9817 11.8813 20.413 11.5771L14.5757 8.22834C14.0593 7.92389 13.3871 7.92389 12.819 8.22834L6.87832 11.5771C6.31025 11.8813 6 12.4394 6 13.0484V19.7968C6 20.4058 6.31025 20.9639 6.87832 21.2681L12.819 24.6175C13.3361 24.9217 14.0076 24.9217 14.5757 24.6175L18.6053 22.3341L21.343 20.7609L25.3726 18.4775C25.889 18.1734 26.5605 18.1734 27.1293 18.4775L30.2806 20.2537C30.797 20.5579 31.1582 21.116 31.1582 21.7251V25.3277C31.1582 25.9368 30.8487 26.4949 30.2806 26.799L27.1293 28.6255C26.6122 28.9304 25.9407 28.9304 25.3726 28.6255L22.2213 26.85C21.7049 26.5451 21.343 25.987 21.343 25.3786V23.0443L18.6053 24.6175V26.9511C18.6053 27.5602 18.9149 28.1183 19.4836 28.4225L25.4243 31.7719C25.9407 32.076 26.6122 32.076 27.181 31.7719L33.1217 28.4225C33.638 28.1183 34 27.5602 34 26.9511V20.2028C34 19.5938 33.6898 19.0356 33.1217 18.7315L27.1293 15.3318Z" fill="white"/>
</svg>
