<svg width="40" height="40" viewBox="0 0 40 40" fill="none" xmlns="http://www.w3.org/2000/svg">
<circle cx="20" cy="20" r="20" fill="#0B0A09"/>
<path d="M11.1463 25.2647C11.3003 25.1107 11.512 25.0209 11.7366 25.0209H32.1024C32.4745 25.0209 32.6606 25.47 32.3975 25.7331L28.3744 29.7562C28.2204 29.9102 28.0087 30 27.7841 30H7.41836C7.04621 30 6.86013 29.5509 7.12321 29.2878L11.1463 25.2647Z" fill="url(#paint0_linear_50_18701)"/>
<path d="M11.1463 10.2438C11.3067 10.0898 11.5185 10 11.7366 10H32.1024C32.4745 10 32.6606 10.4491 32.3975 10.7122L28.3744 14.7353C28.2204 14.8893 28.0087 14.9791 27.7841 14.9791H7.41836C7.04621 14.9791 6.86013 14.53 7.12321 14.2669L11.1463 10.2438Z" fill="url(#paint1_linear_50_18701)"/>
<path d="M28.3744 17.7061C28.2204 17.5521 28.0087 17.4623 27.7841 17.4623H7.41836C7.04621 17.4623 6.86013 17.9114 7.12321 18.1745L11.1463 22.1976C11.3003 22.3516 11.512 22.4414 11.7366 22.4414H32.1024C32.4745 22.4414 32.6606 21.9923 32.3975 21.7292L28.3744 17.7061Z" fill="url(#paint2_linear_50_18701)"/>
<defs>
<linearGradient id="paint0_linear_50_18701" x1="-39.0301" y1="6.22176" x2="-39.572" y2="33.4881" gradientUnits="userSpaceOnUse">
<stop stop-color="#00FFA3"/>
<stop offset="1" stop-color="#DC1FFF"/>
</linearGradient>
<linearGradient id="paint1_linear_50_18701" x1="-45.1931" y1="3.00417" x2="-45.7349" y2="30.2705" gradientUnits="userSpaceOnUse">
<stop stop-color="#00FFA3"/>
<stop offset="1" stop-color="#DC1FFF"/>
</linearGradient>
<linearGradient id="paint2_linear_50_18701" x1="-42.1312" y1="4.60271" x2="-42.6731" y2="31.8691" gradientUnits="userSpaceOnUse">
<stop stop-color="#00FFA3"/>
<stop offset="1" stop-color="#DC1FFF"/>
</linearGradient>
</defs>
</svg>
