<svg width="40" height="40" viewBox="0 0 40 40" fill="none" xmlns="http://www.w3.org/2000/svg">
<circle cx="20" cy="20" r="19.5" fill="white" stroke="#DDDDDD"/>
<path d="M11.2325 25.2647C11.3865 25.1107 11.5982 25.0209 11.8228 25.0209H32.1885C32.5607 25.0209 32.7468 25.47 32.4837 25.7331L28.4606 29.7562C28.3066 29.9102 28.0949 30 27.8703 30H7.50454C7.13239 30 6.94631 29.5509 7.20939 29.2878L11.2325 25.2647Z" fill="url(#paint0_linear_50_8375)"/>
<path d="M11.2325 10.2438C11.3929 10.0898 11.6046 10 11.8228 10H32.1885C32.5607 10 32.7468 10.4491 32.4837 10.7122L28.4606 14.7353C28.3066 14.8893 28.0949 14.9791 27.8703 14.9791H7.50454C7.13239 14.9791 6.94631 14.53 7.20939 14.2669L11.2325 10.2438Z" fill="url(#paint1_linear_50_8375)"/>
<path d="M28.4606 17.7061C28.3066 17.5521 28.0949 17.4623 27.8703 17.4623H7.50454C7.13239 17.4623 6.94631 17.9115 7.20939 18.1745L11.2325 22.1976C11.3865 22.3516 11.5982 22.4415 11.8228 22.4415H32.1885C32.5607 22.4415 32.7468 21.9923 32.4837 21.7292L28.4606 17.7061Z" fill="url(#paint2_linear_50_8375)"/>
<defs>
<linearGradient id="paint0_linear_50_8375" x1="-38.9439" y1="6.22176" x2="-39.4858" y2="33.4881" gradientUnits="userSpaceOnUse">
<stop stop-color="#00FFA3"/>
<stop offset="1" stop-color="#DC1FFF"/>
</linearGradient>
<linearGradient id="paint1_linear_50_8375" x1="-45.1069" y1="3.00417" x2="-45.6488" y2="30.2705" gradientUnits="userSpaceOnUse">
<stop stop-color="#00FFA3"/>
<stop offset="1" stop-color="#DC1FFF"/>
</linearGradient>
<linearGradient id="paint2_linear_50_8375" x1="-42.045" y1="4.60272" x2="-42.5869" y2="31.8691" gradientUnits="userSpaceOnUse">
<stop stop-color="#00FFA3"/>
<stop offset="1" stop-color="#DC1FFF"/>
</linearGradient>
</defs>
</svg>
